/* XPM */
static char *_c21e0addb3a4ff8ad97422514d3349aDc16qY1tM32SPsoB[] = {
/* columns rows colors chars-per-pixel */
"64 64 228 2 ",
"   c None",
".  c #1F0302",
"X  c #1C000A",
"o  c #1F090B",
"O  c #1B0E14",
"+  c #1E1214",
"@  c #2D0204",
"#  c #25040A",
"$  c #3B0201",
"%  c #34000A",
"&  c #3C010A",
"*  c #3B0708",
"=  c #2E0313",
"-  c #290C13",
";  c #270A18",
":  c #310518",
">  c #3A0918",
",  c #271418",
"<  c #361519",
"1  c #37181B",
"2  c #2A1A21",
"3  c #3A1A28",
"4  c #340E27",
"5  c #3C232A",
"6  c #3A2337",
"7  c #440105",
"8  c #4B0001",
"9  c #44020C",
"0  c #4B020A",
"q  c #480B09",
"w  c #540103",
"e  c #580101",
"r  c #5C0C0D",
"t  c #56080A",
"y  c #440414",
"u  c #410D13",
"i  c #4A0C1B",
"p  c #520C14",
"a  c #570C16",
"s  c #481114",
"d  c #4B121C",
"f  c #43191B",
"g  c #4A171B",
"h  c #521215",
"j  c #5A1515",
"k  c #54141B",
"l  c #5C151C",
"z  c #50191D",
"x  c #5B1B1C",
"c  c #640200",
"v  c #6D0201",
"b  c #670A07",
"n  c #790B0B",
"m  c #7A150B",
"M  c #660D16",
"N  c #691915",
"B  c #61151B",
"V  c #6C131C",
"C  c #611A1C",
"Z  c #671314",
"A  c #731514",
"S  c #771919",
"D  c #441924",
"F  c #4B1E25",
"G  c #4A1A28",
"H  c #491728",
"J  c #5D1621",
"K  c #541A22",
"L  c #5D1C23",
"P  c #551927",
"I  c #4F1E34",
"U  c #541F31",
"Y  c #4A0C21",
"T  c #641C24",
"R  c #661B27",
"E  c #741C23",
"W  c #781821",
"Q  c #492729",
"!  c #5B222E",
"~  c #5A2D2B",
"^  c #53232D",
"/  c #482433",
"(  c #432C36",
")  c #4B2B34",
"_  c #4F2438",
"`  c #592B38",
"'  c #4B3539",
"]  c #54323D",
"[  c #573637",
"{  c #61242C",
"}  c #6C232C",
"|  c #6A2929",
" . c #652728",
".. c #732423",
"X. c #75232B",
"o. c #7B272B",
"O. c #7A2B2B",
"+. c #792926",
"@. c #6C2532",
"#. c #6B2C32",
"$. c #6B2E3B",
"%. c #642834",
"&. c #742A33",
"*. c #7C2D38",
"=. c #6B3134",
"-. c #6B333B",
";. c #64373B",
":. c #72323C",
">. c #7D3B3B",
",. c #783537",
"<. c #73403D",
"1. c #4A3A44",
"2. c #4B3341",
"3. c #6D3C43",
"4. c #673544",
"5. c #7A3A43",
"6. c #762B40",
"7. c #5D4850",
"8. c #5B464D",
"9. c #754246",
"0. c #73504E",
"q. c #7E4954",
"w. c #6F5352",
"e. c #745457",
"r. c #775E62",
"t. c #75666B",
"y. c #861C08",
"u. c #831513",
"i. c #841C16",
"p. c #8D1C14",
"a. c #871B1A",
"s. c #891A1A",
"d. c #951D19",
"f. c #97190D",
"g. c #A91D0E",
"h. c #92240D",
"j. c #8C2114",
"k. c #8E261D",
"l. c #932517",
"z. c #95271B",
"x. c #992A18",
"c. c #A2210B",
"v. c #832323",
"b. c #8B2422",
"n. c #8E2A25",
"m. c #832B2A",
"M. c #882925",
"N. c #992621",
"B. c #922C2B",
"V. c #9D2B2B",
"C. c #86322F",
"Z. c #9A3229",
"A. c #8D2C34",
"S. c #822D3A",
"D. c #902C34",
"F. c #873534",
"G. c #8F3435",
"H. c #883739",
"J. c #9E3A34",
"K. c #943C3A",
"L. c #A42C26",
"P. c #A73229",
"I. c #B63C2C",
"U. c #A33533",
"Y. c #A23C35",
"T. c #AA3937",
"R. c #B23D39",
"E. c #B83D38",
"W. c #8E423D",
"Q. c #854039",
"!. c #A84339",
"~. c #B14A3F",
"^. c #BA4539",
"/. c #B8523C",
"(. c #C6432D",
"). c #C74838",
"_. c #D14939",
"`. c #853D47",
"'. c #9D3F42",
"]. c #8C4444",
"[. c #864346",
"{. c #9D4341",
"}. c #934D4B",
"|. c #93414B",
" X c #8B4858",
".X c #9B4C53",
"XX c #954F59",
"oX c #9A525C",
"OX c #975757",
"+X c #9B544E",
"@X c #AD4C4B",
"#X c #A84A47",
"$X c #B54442",
"%X c #B24A44",
"&X c #B74D48",
"*X c #BD534B",
"=X c #B95148",
"-X c #A54A52",
";X c #B44D57",
":X c #AB5557",
">X c #B45A55",
",X c #B85657",
"<X c #84635E",
"1X c #B9625B",
"2X c #A45B65",
"3X c #836C74",
"4X c #A26064",
"5X c #B37162",
"6X c #B97976",
"7X c #C44A44",
"8X c #C15243",
"9X c #C2534C",
"0X c #C9574C",
"qX c #D75847",
"wX c #C04F55",
"eX c #C45656",
"rX c #C6645B",
"tX c #C9705E",
"yX c #E46252",
"uX c #C86764",
"iX c #D06E6F",
"pX c #C37561",
"aX c #E17164",
"sX c #957B85",
"dX c #BA9896",
"fX c #B49AA3",
"gX c #CBABB8",
"hX c #F7EFF1",
/* pixels */
"                                                                                                                                ",
"                                                                                                                                ",
"                                                                                                                                ",
"                                                                                                                                ",
"                                                                                                                                ",
"                                                                                                                                ",
"                                                                                                                                ",
"                                                                                                                                ",
"                                                                                                                                ",
"                                                                                                                                ",
"                                                                                                                                ",
"                                                                                                                                ",
"                                                                                                                                ",
"                                                                                                                                ",
"                                                                                                                                ",
"                                                    dX<X<X[   5                                                                 ",
"                                                  6X#XrXpX5X  @ Q 1         2 2                                                 ",
"                                                ;.H.L.)./.tXW.}.s f <   gXX ) Q - + ,                                           ",
"                                                  }.n.T.~.!.n.A b t x h l p p * < ,                                             ",
"                                                  >.v.B.&Xn.u.u.9X%X@X#X,X,X:XH.x ~                                             ",
"                                                  x o.K.v.A v V.P.L.E.T.U.uXrXrX1X+X<.                                          ",
"                                                  q ..S B.#XV.d.7X).7XL.$XT.Z.!.Y.K.OX                                          ",
"                                                  $ m.a.$XU.u.$X7XL.u.n v c m i.k.G.,.                                          ",
"                                                  * m.i.P.p.P.~.z.v p.U.J.J.m v n.S ,.                                          ",
"                                                sX3.V b.N.d.^.x.x.h.x.p.l.z.l.i.j.M.,.Q                                         ",
"                                              , ] %.*.A.b.u.0Xh.h.y.8X8X^.8Xj.x.k.M.6X[ ,                                       ",
"                                          F 9.s z u y } S.o.c !.aX0X*X*X%X*X~.~.Y.#Xq ~ o                                       ",
"                                          p ]..X>.{ K i i 0 +.#X@XS w 8 8 8 A M.{.:XL 3.                                        ",
"                                        { B m.G.W.OXP & Y L ..+.X.0 { % i ! J } T J y                                           ",
"                                        -.o.{.>XQ.[.& y @.T +.N l L ` = : G $.%.2X5.G                                           ",
"                                        -.OX[.| ,.z $ R M A v >Xr =.u 4.^ % :.} k =.;.= ; 7.                                    ",
"                                      5 ` @ g u s #.&.S ;X9XP.z.>X}.$ %.K L C 8 7 z F 1 -                                       ",
"                                      1.3 ; D G K C m.J.R.E.).qX0X!.t O.p } -XH.p s @ 3 -                                       ",
"                                      6 6 4 = y 0 E uX=X^._.g._.aX,Xe ..T E G.G.X. .F <   '                                     ",
"                                      X : > 6.S.A.*XL.).(._._.I.b.M .XT l M ;X&X@XK. .                                          ",
"                                      < 4.y a ;XwXR.f.yXqX(.(.^.b l 2X`.l w uX&Xs.@X>.                                          ",
"                                      [ q.L t -XeXN.P.qX).).c.I.e a oXoXx j uX>XY.'.[.                                          ",
"                                      w.` z p t S i.Z.P.qXI.)./.A O.7 T T l r F.m.K.|                                           ",
"                                      ' ] f * =.W.K.A %X9X8XE.9XiXw X.} 9 $ x j C h -.                                          ",
"                                      , ) . g %.j Z C.v.B.n a.s.v.A |.&.9 9 OXh =.9.1                                           ",
"                                        5 # % 9 t X.-X'.-XM W D.b S 2X&.R XX4Xq ~ 0.#                                           ",
"                                          G q. X5.X.M V W V W V S o.B J @.@.L 5.f .                                             ",
"                                          D ^ $.:.`.R |..X*..X*.F.N C @.:.R y 3.-                                               ",
"                                          1 ` 3.! K l [.&.R oXa W.O.l :. XY U 4 +                                               ",
"                                              r.e.;.% ! :.{ #.} ].B #.! G 4.;                                                   ",
"                                                  ) < D ` $.k h | k $.` ` 3 ;                                                   ",
"                                                  ( ) G U %.d $.P & H I 3 (                                                     ",
"                                                    sX/ > H -.4.> D _ / 2.                                                      ",
"                                                      fX] = D > - 8.2                                                           ",
"                                                        ( ] / 3 1.O                                                             ",
"                                                          3X5 7.t.hX                                                            ",
"                                                                                                                                ",
"                                                                                                                                ",
"                                                                                                                                ",
"                                                                                                                                ",
"                                                                                                                                ",
"                                                                                                                                ",
"                                                                                                                                ",
"                                                                                                                                ",
"                                                                                                                                ",
"                                                                                                                                ",
"                                                                                                                                ",
"                                                                                                                                ",
"                                                                                                                                "
};
