/* XPM */
static char *_d165c58042c44b9dd714437df2a0959S80J9soa9TLpsdYq[] = {
/* columns rows colors chars-per-pixel */
"64 64 225 2 ",
"   c None",
".  c black",
"X  c #010101",
"o  c #020202",
"O  c gray1",
"+  c #040404",
"@  c gray2",
"#  c #060606",
"$  c #070707",
"%  c gray3",
"&  c #090909",
"*  c gray4",
"=  c #0B0B0B",
"-  c #0C0C0C",
";  c gray5",
":  c #0E0E0E",
">  c gray6",
",  c #101010",
"<  c #111111",
"1  c gray7",
"2  c #131313",
"3  c gray8",
"4  c #151515",
"5  c gray9",
"6  c #181818",
"7  c gray10",
"8  c #1B1B1B",
"9  c gray11",
"0  c #1E1E1E",
"q  c gray12",
"w  c #202020",
"e  c gray13",
"r  c #222222",
"t  c #232323",
"y  c gray14",
"u  c #252525",
"i  c gray15",
"p  c #272727",
"a  c #282828",
"s  c gray16",
"d  c #2A2A2A",
"f  c gray17",
"g  c #2C2C2C",
"h  c #2D2D2D",
"j  c gray18",
"k  c #2F2F2F",
"l  c gray19",
"z  c #313131",
"x  c #323232",
"c  c gray20",
"v  c #343434",
"b  c #353535",
"n  c gray21",
"m  c #373737",
"M  c gray22",
"N  c #393939",
"B  c #3A3A3A",
"V  c gray23",
"C  c #3C3C3C",
"Z  c gray24",
"A  c #3E3E3E",
"S  c #3F3F3F",
"D  c gray25",
"F  c #414141",
"G  c gray26",
"H  c #434343",
"J  c #444444",
"K  c #464646",
"L  c #484848",
"P  c #494949",
"I  c gray29",
"U  c #4B4B4B",
"Y  c #4C4C4C",
"T  c gray30",
"R  c #4E4E4E",
"E  c gray31",
"W  c #505050",
"Q  c #515151",
"!  c gray32",
"~  c #535353",
"^  c gray33",
"/  c #555555",
"(  c #565656",
")  c gray34",
"_  c #585858",
"`  c gray35",
"'  c #5A5A5A",
"]  c #5B5B5B",
"[  c gray36",
"{  c #5D5D5D",
"}  c gray37",
"|  c #5F5F5F",
" . c #606060",
".. c gray38",
"X. c #626262",
"o. c gray39",
"O. c #646464",
"+. c #656565",
"@. c gray40",
"#. c #676767",
"$. c #686868",
"%. c DimGray",
"&. c #6A6A6A",
"*. c gray42",
"=. c #6C6C6C",
"-. c #6D6D6D",
";. c gray43",
":. c #6F6F6F",
">. c gray44",
",. c #717171",
"<. c #727272",
"1. c gray45",
"2. c #747474",
"3. c gray46",
"4. c #767676",
"5. c #777777",
"6. c gray47",
"7. c #797979",
"8. c gray48",
"9. c #7B7B7B",
"0. c #7C7C7C",
"q. c gray49",
"w. c #7E7E7E",
"e. c gray50",
"r. c #808080",
"t. c #818181",
"y. c gray51",
"u. c #838383",
"i. c #848484",
"p. c gray52",
"a. c #868686",
"s. c gray53",
"d. c #888888",
"f. c #898989",
"g. c gray54",
"h. c #8B8B8B",
"j. c gray55",
"k. c gray56",
"l. c gray57",
"z. c #929292",
"x. c gray58",
"c. c #959595",
"v. c #979797",
"b. c #989898",
"n. c gray60",
"m. c #9A9A9A",
"M. c #9B9B9B",
"N. c gray61",
"B. c gray62",
"V. c #9F9F9F",
"C. c #A2A2A2",
"Z. c gray64",
"A. c #A5A5A5",
"S. c gray65",
"D. c #A7A7A7",
"F. c #AAAAAA",
"G. c #ACACAC",
"H. c gray68",
"J. c #AEAEAE",
"K. c #AFAFAF",
"L. c #B1B1B1",
"P. c #B2B2B2",
"I. c gray70",
"U. c #B4B4B4",
"Y. c gray71",
"T. c #B6B6B6",
"R. c #B7B7B7",
"E. c gray72",
"W. c #B9B9B9",
"Q. c gray73",
"!. c #BBBBBB",
"~. c #BCBCBC",
"^. c gray74",
"/. c gray",
"(. c gray75",
"). c #C0C0C0",
"_. c #C1C1C1",
"`. c gray76",
"'. c #C5C5C5",
"]. c #C6C6C6",
"[. c gray78",
"{. c #C8C8C8",
"}. c gray79",
"|. c #CACACA",
" X c #CBCBCB",
".X c #CDCDCD",
"XX c #CECECE",
"oX c gray81",
"OX c #D0D0D0",
"+X c gray82",
"@X c #D2D2D2",
"#X c LightGray",
"$X c gray83",
"%X c #D5D5D5",
"&X c gray84",
"*X c #D7D7D7",
"=X c #D8D8D8",
"-X c gray85",
";X c #DADADA",
":X c gray86",
">X c gainsboro",
",X c #DDDDDD",
"<X c gray87",
"1X c #DFDFDF",
"2X c gray88",
"3X c #E1E1E1",
"4X c #E2E2E2",
"5X c gray89",
"6X c #E4E4E4",
"7X c gray90",
"8X c #E6E6E6",
"9X c #E7E7E7",
"0X c gray91",
"qX c #E9E9E9",
"wX c #EAEAEA",
"eX c gray92",
"rX c #ECECEC",
"tX c gray93",
"yX c #EEEEEE",
"uX c #EFEFEF",
"iX c gray94",
"pX c gray95",
"aX c #F4F4F4",
"sX c #F6F6F6",
"dX c gray97",
/* pixels */
"                                                    N a u u a u u w 1 . . * N k.                                                ",
"                                              ;.A.4XrX<X6XwX4XwXwX4Xx.;.F . . u u $                                             ",
"                                          }.4X6XwX6X6X4XwX4X6X6X6X6X:X6X.XC.S 6 w $. .a 6 b                                     ",
"                                    G.wXrX6XwX4X%X4X6X6XrX4X<X6XwX4XwX6X6X6X! $ 1 $ ,.9.4.u ; q                                 ",
"                                  iX6X4X4X<XA.a.x.A.m.x.a.C.+X6X6X4XrX4X[.E u ( +X' 6 S ,.u.4.c q !                             ",
"                              %X6X:XwX4XwXI.z.G.+X.XU.u.1 * b F F L S F g ( G.<X<X4Xh.u w ,.a.u.;.b w E                         ",
"                          Q.rX<X6XiX4X6X6X6X4X6XwXwXk.1 $ m.wX6XU.9.( ( .X<X6XwX4X6X6XU.N $ a.u.a.9. .; $                       ",
"                        6X6X4XwX6X:XrX4XwX6X4X6X:X+.c E x.6X6X6X6X4XwX4X6XwXwX6X6X6X<X6X}.( . 4.9.a.9.w.c 6                     ",
"                      6X6XwX4XwX6XrX.X6X4X6X6X6XF 1 h.wX4X6XwX4X6X6X6X6X6X6X6X6X4XwX6X6X4X:X* a a.u.w.u.9.E                     ",
"                    6XwX4X6X6X4Xh.5 L b ; $.F.; L ' G.6X4X4XwX6X6X6X6X6X6X6X6X6X6X4XwX6XwXwX_.5 L u.u.w.u.w.(                   ",
"                  6X4X4X6X6X6XwX4X6X<X%Xw.4.$.[.[. .G.wX6XrX<X6X6X6X6X6X6X6X6X6X6XwX4X<XwX<XwXL a 9.9.u.9.u.!                   ",
"                  wX4XwX6X4X6X6XwX6X+Xu._.6X<XrX+X,.x.4X6X4XwX6X6X6X6X6X6X6X6X6X6X<X4XrX6XwX4X[.q F u.u.9.a.( a                 ",
"                I.^.wX<X6XwXwX4X4XaXb :XwXwX4X6X6Xz.a.6XrX4X4XwX6X6X6X6X6X6X6X6XwX4XwX4X<X4X4X4Xx.5  .9.u.w.$.w                 ",
"                $.x.4X4X6X4X4XwX6Xw.aX6X4X6XwX<X<X%X$.$.G.wXrX4X6X6X6X6X6X6X6X6X4XwXwX<XrX6XwX6XU.c S w.w.w.u.' 1               ",
"              9.9.}.6X6X6XwX6X4X6X_.4X4X4XwX:XiXwX6XU.a 9.4X4X4X6X6X6X6X6X6X6X6XwX<X6XrX4X4X6X4X6X4.; $.u.u.9.u.a               ",
"            wX4XwX<X6X6X6X4XwX6XwX6X6X6X6X4X6X4X4XwX4XK %X6X4X6X6X6X6X6X6X6X6X6X4XwX6X4X6X6X6X6XwX^.b [ 9.u.w.w.' .             ",
"            6X6X6X6X6X4X6XwX6X6X6X6X4X6X6X4XwX6XwX6X4Xm.+XwX6X6X6XwXwX4X6X4X6X6X4X6X4XwX4X4X4X6X6X4X .. w.w.w.w.a.;             ",
"            4X4X6X4X6XwX4X4X6X6X6X4XwX6XwX6X6X4X<XrX6X4X4X4X6X6X4X<X6X6X6XiX6X4XwXwX4X6X6X6XwX6X6XwXQ.q E u.9.u.u.u ;           ",
"          <X6XwX4XwX6X4X4XwXrXrXrX4XwXrXwX4X6X6XwX4X4XwXrX6X6XwXrXiXwXaXrXwXiX6X4X4X6XrX6X4X6X6X6X4XrXg ; u.w.w.w.;.*           ",
"          %X6X4X6X6X4XwX+X$.* . . $ . $ . ( .X4X6X6X4Xu.[.6X6X.XE $ $ . . * . ; 4XrX4X6X4XrX6X4X6X4XwXN . u.a.w.w.w.;           ",
"          :X6X6X6X4X:XwX6Xm.[ +.L . * b q $ q 6X6X<XwXS . :X4XU.N * * ; N u * . F :X6XwX4X6X4XwX6X6X6XE $ w.u.w.9.w.*           ",
"          4X6X6X6XrXwX4X4XwXwXrXF.$ u }.I.a . I.6XwX6X,.* ' 4X:X^.I.* 5 %X[.$.* . rX6X<XwX6X6X6X4X6X4X! $ u.9.u.u.4.;           ",
"          %X<XwX4X4XwXrX6X6X6X4XQ.$ N U.B.c $ Q.<XwX6Xu.* 1 wXwX4XwX1 q wX6X[ * S 6XwX6XwX4X4X6XwX6X6X' $ a.w.u.w.4.;           ",
"          %XwX4X6XwX6X4X6XwX6X6X[.. . . . $ q rX6X6X6Xw.; 5 4X6X6X6X; * g ; * w :X4X4X6X6XwX4X6X6X4XwX;.$ w.u.w.u.4.;           ",
"        c %XrX4X6X6X6X6X6X6X6X6X%X. . $ . . ' 6X4XrX<X9.; ; 6X6X4XrX5 . 5  .B.Q.6X6X6X6X6X6X6X6X6X6X<X4.. u.w.u.u.,.1           ",
"        b :X<X6X6X6X6X6X6X6X6X6X%X. c <X' . ; +X6X4X6Xu.$ 5 6X4XwX4X1 . L 4X6X4X6X6X6X6X6X6X6X6X6X6XwX,.; h.w.9.w.,.5           ",
"        N :X6XwX6X6X6X6X6X6X6X6X6X. a wX6Xw.$ 1 _.wX6X9.. 5 rX4X<XrXN . S 4X6XwX6X6X6X6X6X6X6X6XwX4XwXw.. u.w.u.u.$.1           ",
"        S <X6X<X6X6X6X6X6X6X6X6XwXw L 4XwX<XS $ E 4X4Xx.w ! 4XwX6X4X9.* K 4X6X6X6X6X6X6X6X6X6X6X6X4X6Xh.. a.u.u.u.$.1           ",
"          w %X4X6X6X6X6X6X6X6X6X6X:X.X6X6X4X%X_.%X6X6X:X%X:X4X6X6XrX4X+X4XwX4X6X6X6X6X6X6X6X6X6X4XrX4Xa.* u.u.w.w.,.;           ",
"          ^.[ 4.6X6X6X6X6X6X6X6X6X4X6XwX6XwX4X6X4XwX6X6X<XwX4X6X6X:XwX4X4XwX4X6X6X6X6X6X6X6X6X6X6X6X4XA.. u.u.u.w.,.;           ",
"          u.A..X6X6X6X6X6X6X6X6XwX6X4X<XwX6X<XrX4X6X6X4XrX<XrX4XwX6X4XwX6X<XwX6X6X6X6X6X6X6X6X6X6X<XwXB.$ h.w.w.u.! 5           ",
"          6X6X6X6X6X6X6X6X6X6X6X4X6XwXwX6X6XwX4X4XwX6X4X4XwX4X6X6X6XwX4X6X6XwX6X6X6X6X6X6X6X6X6X6X6X6XN . a.w.w.w.q 1           ",
"          4X4X6X6X6X6X6X6X6X6X6X6X6X6X6X6X6X6X6X6X6X6X6X6X6X6X6X6X6X6X6X6X6X6X6X6X6X6X6X6X6X6X6X4X6X<Xa * u.w.w.9.;             ",
"          4X4X6X6X6X6X6X6X6X6X6X6X6X6X6X6X6X6X6X6X6X6X6X6X6X6X6X6X6X6X6X6X6X6X6X6X6X6X6X6X6X6X6X6X6X .$ ' w.w.u.g *             ",
"          <X6X6X6X6X6X6X6X6X6X6X6X6X6X6X6X6X6X6X6X6X6X6X6X6X6X6X6X6X6X6X6X6X6X6X6X6X6X6X6X6X6X6X6X6X4.; 9.a.w.w.4.; S           ",
"          <X6X6X6X6X6X6X6X6X6X6X6X6X6X6X6X6X6X6X6X6X6X6X6X6X6X6X6X6X6X6X6X6X6X6X6X6X6X6X6X6X6X6X<X6XrXc $ 4.9.a.w.w.;           ",
"          <X6X6X6X6X6X6X6X6X6X6X6X6X6X6X6X6X6X6X6X6X6X6X6X6X6X6X6X6X6X6X6X6X6X6X6X6X6X6X6X6X6X6X6XrX4X^.$  .a.4.w.h.*           ",
"        [ <X6X6X6X6X6X6X6X6X6X6X6X6X6X6X6X6X6X6X6X6X6X6X6X6X6X6X6X6X6X6X6X6X6X6X6X6X6X6X6X6X6X6X4X6X6XwX.  .9.u.w.h..           ",
"        E :X6X6X6X6X6X6X6X6X6X6X6X6X6X6X6X6X6X6X6X6X6X6X6X6X6X6X6X6X6X6X6X6X6X6X6X6X6X6X6X6X6X6XrX4X6XwX*  .4.a.w.w.1           ",
"        F %X6X4X6X6X6X6X6X6X6X6X6X6X6X6X6X6X6X6X6X6X6X6X6X6X6X6X6X6X6X6X6X6X6X6X6X6X6X6X6X6X6X6X4X4XwXrX. [ u.9.w.a.$           ",
"        b :X6X6X6X6X6X6X6X6X6X6X6X6X6X6X6X6X6X6X6X6X6X6X6X6X6X6X6X6X6X6X6X6X6X6X6X6X6X6X6X6X6X6X6X6X6XrX. [ w.u.w.a.;           ",
"        c %X6X<X6X6X6X6X6X6X6X6X6X6X6X6X6X6X6X6X6X6X6X6X6X6X6X6X6X6X6X6X6X6X6X6X6X6X6X6X6X6X6X6X6X6X6XwX. [ w.u.u.u.*           ",
"        c :XwX6X6X6X6X6X6X6X6X6X6X6X6X6X6X6X6X6X6X6X6X6X6X6X6X6X6X6X6X6X6X6X6X6X6X6X6X6X6X6X6X6X6X6X6XwX. [ u.w.u.w.*           ",
"        N %X6X6X6X6X6X6X6X6X6X6X6X6X6X6X6X6X6X6X6X6X6X6X6X6X6X6X6X6X6X6X6X6X6X6X6X6X6X6X6X6X6X6X6X6X6XwX$ [ u.w.w.u.;           ",
"        S %X4X6X6X6X6X6X6X6X6X6X6X6X6X6X6X6X6X6X6X6X6X6X6X6X6X6X6X6X6X6X6X6X6X6X6X6X6X6X6X6X6X6X6X6X6X6X. ' u.w.w.u.;           ",
"        S <XwX6X6X6X6X6X6X6X6X6X6X6X6X6X6X6X6X6X6X6X6X6X6X6X6X6X6X6X6X6X6X6X6X6X6X6X6X6X6X6X6X6X6X6X6X6X. ' u.w.u.u.;           ",
"        S <X4X4X6X6X6X6X6X6X6X6X6X6X6X6X6X6X6X6X6X6X6X6X6X6X6X6X6X6X6X6X6X6X6X6X6X6X6X6X6X6X6X6X6X4X6X4X. ( w.w.u.u.*           ",
"        K 4X4XwX6X6X6X6X6X6X6X6X6X6X6X6X6X6X6X6X6X6X6X6X6X6X6X6X6X6X6X6X6X6X6X6X6X6X6X6X6X6X6X6X6X4X6X4X. ( w.w.w.u.*           ",
"        [ wX<X6X6X6X6X4X4XwX6X6X4X6X6XwX<X6X6X6X6X6X6X6X6X6X6X6X6X6X6X6X6X6X6X6X4X6X4X6X4X6X6X6X6X4X6X:X$ ! w.w.u.u.;           ",
"        ;.wX6XwX4X6XwX6X6X<X6X4X6X6X4X6X4XwXrX4X6X6X6X6X6X6X6X6X6X6X6X6X6X6X6X6XwXwXwX<XwXwX<X6XwX6X6X+X. ( u.u.w.u.;           ",
"        z.wX4X6X6X6X4X4XrX4XwX6X6X4X6XwXwX<X4X4X6X6X6X6X6X6X6X6X6X6X6X6X6X6X6X6X:XwX4XwX4X6XwX4X4X6XwX%X. ! w.9.u.a.*           ",
"        h.wX6XwX6X6X4X4X6X6X6X6X6XwX6X<X6XrXwXwX6X6X6X6X6X6X6X6X6X6X6X6X6X6X6X6XrX4X6X4X6X4X6X6X6X6X6X.X. ! u.a.w.w.;           ",
"        z.4X6X4X4X6XwX6X4X6X4X6X4X6XwXwX6X4X:XwX6X6X6X6X6X6X6X6X6X6X6X6X6X6X6XwX<X6X6XwX4X6X6X6XwX6X4X}.$ E 9.9.w.a..           ",
"        I.%XwX4X6X4X6X6X6XwX6X4X6X6X4X6X4X6XrX+X6X6X6X6X6X6X6X6X6X6X6X6X6X6X6X6X6XG.<X4XrX6X<XwX4X6X6X}.$ E w.u.u.u.5           ",
"+X. E   ^.+X4XwXwX4X4X6X6X%XrX4X<XwX6X<X6XrX<Xc 6X6X6X6X6X6X6X6X6X6X4X6X6X6X6X4XwXw wX6X4X6XrX4X4XwX6X_.. E w.9.L *             ",
"%X,.. 6 $.I.wX6X6X4XwX6X:XG.wX6XwX6X4X6X6X4XrX; 6X6X6X6X6X6X6X6XwX6X6X6X6X6X4X<Xw q 4X6X4XwX4X6X4XwX6X^.. F E u .               ",
"  A.5 . . z.6XwX4X6X6X4X}.( G.^.6X6X6XwX4X6X}.* B.6X6X4XwX6XQ.^.wX6X4XwX4X6X4X$.* 1 I.C.+.+X<X6X4X6X6XQ.. 1 . . .               ",
"N [ 9.* . a.rX<X6X6X6X4Xb $ $ C.6XwX4X4XrX6X,.. b 4X6XrX:X%Xa ,.4X4XrX4X6XwXu.1 . 1 K a * _.4X6XwXwX4Xg $ . . $                 ",
"  N . . . ;.4X6X6X6X6X.X. . . m.rX6XrX6X6X6Xg * g 6X6XwXrX%X. [ 6XrX4X4XwX_.S . . . . . . . 1 5 S +.g . . . ;                   ",
"z.4.L . . w ( ' [ ' [ c $ . . L [ +.[ +.' ;.6 . 1 L [ +.+.( $ g +. .[  .[ N . $ . . * . $ . . . $ * $ . . . .                   ",
"  1 ; $ . . $ . . * . $ . . $ . . $ . . $ . . . . . $ . . . . .           ; . . . 1 g 1 . . $ . . . $ . . .                     ",
"    u . $ . . 1 L     S $ $ . . $   6 $       $ $ .                                                     . $                     ",
"                            $                                                                                                   ",
"                                                                                                                                "
};
