/* XPM */
static char *_3856a09720e464af327904a04b1c3d90C1SP1cTb0SPaZaP[] = {
/* columns rows colors chars-per-pixel */
"64 64 158 2 ",
"   c #3E4C47",
".  c #3E4749",
"X  c #3E4B4C",
"o  c #3D4B51",
"O  c #3F5153",
"+  c #414C46",
"@  c #404A4B",
"#  c #404B51",
"$  c #425355",
"%  c #425259",
"&  c #485359",
"*  c #45585F",
"=  c #4A5B5E",
"-  c #5F5F5E",
";  c #61605E",
":  c #455C63",
">  c #4A5B62",
",  c #4C5F69",
"<  c #535F67",
"1  c #525F68",
"2  c #4D6167",
"3  c #4D626A",
"4  c #526166",
"5  c #526169",
"6  c #4D6370",
"7  c #576475",
"8  c #566F75",
"9  c #5C6E74",
"0  c #5C6F78",
"q  c #577075",
"w  c #5D7075",
"e  c #54727C",
"r  c #5C7178",
"t  c #5D7C7F",
"y  c #646464",
"u  c #646867",
"i  c #6A6C66",
"p  c #64666A",
"a  c #69676B",
"s  c #65686B",
"d  c #6A6A6B",
"f  c #606F74",
"g  c #6F6D70",
"h  c #617176",
"j  c #6F7575",
"k  c #61767E",
"l  c #637C7D",
"z  c #737576",
"x  c #767877",
"c  c #747678",
"v  c #747879",
"b  c #5E7B83",
"n  c #5D7C89",
"m  c #637780",
"M  c #617D85",
"N  c #5F818B",
"B  c #5D8292",
"V  c #638287",
"C  c #688186",
"Z  c #66858D",
"A  c #69858D",
"S  c #67888E",
"D  c #69888D",
"F  c #76878F",
"G  c #718A8F",
"H  c #798A8F",
"J  c #658690",
"K  c #698590",
"L  c #668893",
"P  c #6C8D94",
"I  c #6F8F99",
"U  c #798791",
"Y  c #728E96",
"T  c #7A8A92",
"R  c #728E9A",
"E  c #6F9097",
"W  c #6F9099",
"Q  c #729195",
"!  c #73929A",
"~  c #79969E",
"^  c #75989E",
"/  c #7B999E",
"(  c #7696A1",
")  c #7996A1",
"_  c #7B9BA5",
"`  c #7D9DA9",
"'  c #7FA0A9",
"]  c #979795",
"[  c #9A9997",
"{  c #979799",
"}  c #949899",
"|  c #9B9B9C",
" . c #A19D9C",
".. c #869EAA",
"X. c #9F9FA1",
"o. c #85A0A7",
"O. c #83A3AC",
"+. c #8CA7AE",
"@. c #86A9AF",
"#. c #8BA8AE",
"$. c #9FA1A2",
"%. c #86A7B3",
"&. c #8AA6B4",
"*. c #86A9B3",
"=. c #89A9B4",
"-. c #86A7B8",
";. c #89A7B9",
":. c #85A9B9",
">. c #8DAEBA",
",. c #93AEB6",
"<. c #92AEB9",
"1. c #93ADBA",
"2. c #96AEBA",
"3. c #95AFBE",
"4. c #99ACBB",
"5. c #99AFBD",
"6. c #8FB0B7",
"7. c #8EB0BC",
"8. c #94B1B7",
"9. c #91B0BC",
"0. c #97B1BD",
"q. c #A3A2A2",
"w. c #A1A4A3",
"e. c #A6A5A3",
"r. c #A3A3A5",
"t. c #A4A4A6",
"y. c #A7A9A6",
"u. c #ACADA7",
"i. c #A4A6A8",
"p. c #A7A8AA",
"a. c #AAAAA8",
"s. c #ABABAD",
"d. c #AEAEAF",
"f. c #B1B1AF",
"g. c #AEAEB0",
"h. c #B1AFB0",
"j. c #AFB0B3",
"k. c #B1B1B2",
"l. c #9FBAC3",
"z. c #9DBBC5",
"x. c #9EBCC6",
"c. c #9FBDC8",
"v. c #A2BBC2",
"b. c #A0BAC7",
"n. c #A1BCC4",
"m. c #A1BCC7",
"M. c #A3BAC8",
"N. c #A3BEC9",
"B. c #A4BFCB",
"V. c #A3BECF",
"C. c #A2C1CB",
"Z. c #C2C6C5",
"A. c #C2C6C8",
"S. c #C7CBCB",
"D. c #C9CDCE",
"F. c #CDCDCE",
"G. c #CED0CF",
"H. c #CACED0",
/* pixels */
"} $.] [ | | { { { { | | | | X.q.q.q.q.X.X.| | X.X.r.r.t.r.q.$.| | { { | q.r.r.t.t.t.r.X.X.X.q.q.q.q.r.r.r.r.t.i.y.a.a.a.s.d.e.; ",
"w.x j z z z z z c c z c c c c c c c c c c c c c c c c c c c z z z z z z z z v z z z z z z z z z z z z z v z z z z c c c z z F.- ",
"[ d h 9 2.2.2.2.2.2.2.2.2.2.2.2.2.2.2.2.2.2.2.2.2.2.2.2.K K 3 3 R R b.b.n.N.N.N.N.N.N.N.N.N.N.N.N.N.N.N.N.N.n.n.l.v.T H X @ F.- ",
" .s 9 e 2.2.2.2.2.2.2.2.2.2.1.1.2.2.2.2.2.2.2.2.2.2.0.2.K A 3 3 R ~ c.c.x.x.x.x.z.z.z.z.x.x.x.x.z.z.z.z.x.x.x.x.V.M.T U X X H.y ",
"q.s 2.1.` ` ` W Z Z Z Z Z Z Z Z Z Z Z Z Z Z Z Z Z Z ` ` J A X X %.%.%.%.=.( E E E E E E E ! ! E ! ! E ! E E E E =.%.Y U X @ D.y ",
"a.s 2.3.` ` ` ! Z A Z Z Z Z Z Z Z Z Z Z Z Z Z Z Z Z _ ` A A X X %.=.%.%.=._ E E E E E E E ! ! E E P E ! E E E E %.%.Y T X @ D.y ",
"a.d 2.3.Z Z Z V M V Z Z Z Z Z Z Z Z A Z Z Z Z Z Z Z Z Z > > X X %.%.W E I W E E E E E E E S S E ! S Z E E E E E I E 3 5 X @ D.y ",
"a.d 2.3.Z Z A Z V V A V V Z Z Z A V V A Z Z Z Z Z Z Z Z * = X X %.%.E E I W E E E E E E E L L E E P L E E E E E W E 3 4 X @ D.y ",
"s.d 2.2.A A A Z Z Z Z b b A Z Z A b b Z Z Z Z Z Z Z Z Z : = X X %.%.R Y E E E W ! E E E E E E E E E E E E E E E Y Y 3 < X @ D.y ",
"d.y 2.2.Z Z Z Z Z Z Z V V A Z Z Z V V Z Z Z Z Z Z Z Z Z : = X X %.%.W E E E ! P P E E E E E E E E E E E E E E Y E E 3 < X @ D.y ",
"a.s 2.0.A A Z A Z Z Z Z Z Z Z Z Z Z Z Z Z Z Z Z A Z Z Z : = X X =.%.E E P ! Y P Z E E E E E E E E E E E E E ! Y E Y 3 5 X @ D.y ",
"a.s 2.&.: : : 8 Z Z Z Z Z Z Z Z Z Z Z Z Z Z Z Z 8 : : : > = X X %.&.3 3 3 m P E P ! E E E E E E E E E E E Y b 3 3 3 3 5 X @ D.y ",
"s.y 4.5.> > > 9 K K A A Z Z Z Z A A A A Z Z A A 8 > > > > = X X =.&.3 5 1 k Q E E E E E W W W W W W W W E Y k 5 3 3 5 4 X @ D.y ",
"d.u K A > > > > : : : : : : : : : : : : : : : : > > > > = = X X 3 5 3 3 5 , 3 3 3 3 3 3 3 3 3 3 3 3 3 3 3 3 5 3 3 5 5 5 X @ D.y ",
"g.s A C > > > > = = = = = = = = = = = = = = = = > > > > = = X X 4 4 5 5 3 5 5 < 5 5 5 5 4 4 4 4 4 4 4 4 5 5 5 5 5 5 4 4 X @ D.y ",
"j.a % & X X X X X X X X X X X X X X X X X X X X X X X X X X X @ X X # # X @ @ @ X X X X @ @ @ @ X X X X X X @ @ X X @ @ X @ D.y ",
"k.a % % X X X X X X X X @ X X @ X X X o X X X X X X X X X X X X X X X X X X o o X X $ @ X @ X X X X X X X X X X X X X X X @ D.y ",
"k.s ~ ~ ,.,.,.,.1.1.1.1.,.A A X X l b &.*.*.*.*.&.&.&.&.*.*.*.*.*.*.*.*.=.&.&.&.=.=.&.3 5 X X A A ,.,.,.1.1.1.1.1.1.1.1.X @ D.y ",
"k.s ~ ( 7.7.7.7.7.7.>.7.7.J A X X M B %.;.;.&.%.:.:.:.:.&.&.&.&.;.;.;.;.*.*.*.*.*.:.-.6 5 X X K L >.7.7.9.>.>.>.>.>.>.>.X @ D.y ",
"k.s N.C.~ ~ ~ ~ ~ ~ / ,.8.) ~ X o %.%.&.-.*._ E E E E E E E E E E E E E E E E W Q %.;.G F + X ,.8.1.1.1.o.~ ~ ~ ~ ~ ~ ~ X @ D.y ",
"k.s B.C.~ ~ ~ ~ ~ ~ ~ =.1.( ~ X X @.%.%.=.=._ I W W W W E E E E P P E E W W W W E %.=.Y H @ X 1.9.9.8.8.O.~ ~ ~ ~ ~ ~ ~ X @ D.y ",
"k.s B.C.~ ~ ~ ~ ~ ~ ~ ~ ) Z A X X @.&.W ! ! ! W W W W W E E E E Z L E E W W W W E W I 3 5 X X 1.1.( ) ~ ~ ~ ~ ~ ~ ~ ~ ~ X @ D.y ",
"k.s B.C.~ ~ ! ~ ~ ~ ~ ~ ~ J A X X *.&.E E E E E P P W ! E E E E L P ! ! P P P P E W ! 3 5 X X 1.1.) ~ ~ ~ ~ ! ! ~ ~ ~ ~ X @ D.y ",
"k.s B.C.~ ~ P ! ~ ~ ~ ~ ~ J A X o *.&.E E E E E P L ! W E E E E ! ! ! P Z Z L P E E ! 3 5 X X 1.1.) ~ ~ ~ ~ ! P ~ ~ ~ ~ X @ D.y ",
"k.s B.C.~ ~ ! ~ ~ ~ ~ ~ ~ Z Z X X &.*.E Y W W W P L P ! E E E E E E E P P L L Y E E ! 3 5 X X 1.>.~ ~ ^ ) ) ~ R ~ ~ ~ ~ X @ D.y ",
"k.s B.C.~ ~ ~ ~ ~ ~ ~ ~ ~ Z Z X X &.%.Q Y Y R W E E E E E E E E E E E ! E E Y Y Y Q Q 3 5 X X 1.1.~ ~ ~ ~ ~ ~ ~ ~ ~ ~ ~ X @ D.y ",
"k.s B.C.~ ~ ~ ~ ~ P A A A Z Z X X %.%.3 3 3 b W E E E E E E E E E E E E E E Y b 3 3 3 3 5 @ X 1.1.8 8 8 V ~ ~ ~ ~ ~ ~ ~ X @ D.y ",
"k.s B.C.~ ~ ~ ~ ~ P Z Z Z Z Z X X *.*.5 5 3 M Y E E E E E E E E E E E E E E Y b 1 3 3 5 5 X X 1.,.r f 9 A ~ ~ ~ ~ ~ ~ ~ X @ D.y ",
"f.s ~ _ K K K K K Z Z Z A J A @ X 1 7 5 3 3 5 3 3 3 3 3 3 3 3 3 3 3 3 3 3 3 3 3 5 5 5 5 3 X X 8 k 9 9 9 q 8 q q q q 0 0 X @ D.y ",
"f.s ~ ~ Z Z Z Z Z Z Z Z A Z Z X X 5 5 4 5 5 4 4 1 1 1 1 4 4 4 4 1 1 1 1 1 1 1 5 5 5 5 5 5 X X r 9 h 9 9 9 9 f f w f f f X @ D.y ",
"k.a $ % X X X X X X X X X o # @ X X X X X X X X X X X X X X X X X X X X X X X X X X X X X X X X X X X X @ @ X X X X X @ X @ D.y ",
"k.a $ % X X X X X X X X X X X X X X X X X X X X X X X X X X X X X X X X X X X X X X X X X X X X   X X X @ @ @ X X X X @ X @ D.y ",
"k.s Y R =.=.%.=.%.%.%.%.%.%.%.%.%.%.%.%.%.%.%.%.*.%.%.%.n t X X e e ` ` ` ` ` ` ` ` ` ` ` ` ` ` ` ` ` ` ` ` ` ` ` ` e e X @ D.y ",
"k.s Y ! =.=.%.;.%.%.=.=.%.%.=.=.%.%.=.=.%.%.=.=.*.%.=.%.n b X X e e ` ` ` ` ` _ ` ` ` ` ` ` ` ` ` ` ` ` ` ` ` ` ` _ e e X @ D.y ",
"k.s n.z.=.%.=.` W ! W ! W W W W W W W W W ! W W ! I =.%.R Y X X ` _ ` ` ` I Z Z Z Z Z Z Z J J Z Z Z Z Z Z Z Z Z _ _ A V X @ D.y ",
"k.s l.c.%.%.%._ E P P W E E E E E E E E P E E E P I %.=.I Q X X _ ` ` ` _ W Z Z A A A A Z Z Z Z A A A A A A A A _ _ Z A X @ D.y ",
"k.s b.x.E E E E E L S E E E E E E E E E ! S Z S L E E E 6 5 X X ` ` Z Z Z Z Z Z Z Z Z Z A b b A Z Z Z Z Z Z Z Z Z A > > X @ D.y ",
"k.s b.x.E E E E P P P ! E E E E E E E E ! P P P P P E E 6 5 X X ` ` Z Z Z Z Z Z Z Z Z Z Z V V Z Z Z Z Z Z V V Z Z A > > X @ D.y ",
"k.s b.x.E E E E E E E E E E P E E E E E E E E E E E E E 6 5 X X ` ` J Z Z Z Z Z Z Z Z Z Z Z Z Z Z Z A Z V M V Z Z A > > X @ D.y ",
"k.s b.x.E E E E E E E E ! P P E E E E E E E E E E E E E 6 5 X X ` ` J Z Z Z Z Z A V V Z Z Z Z Z Z V V A V V Z Z Z A > > X @ D.y ",
"k.u n.l.E Y P W W W W W W Z J ! W W W W W W ! I W P Y E , 5 X X ` ' Z Z A A Z Z A M M V Z Z Z Z Z M M Z Z Z A A Z A * > X @ D.y ",
"k.s n.l.3 3 3 b E E E E E P ! E E E E E P S P E b 3 3 3 5 5 X X ` _ : > > 8 Z J J Z J J J J J J J Z Z J J A q > > > * > X @ D.y ",
"d.u l.x.3 5 3 m Q Q Q Q Q Q Q Q Q Q Q Q Q D P Y k 5 5 3 5 5 X X ` ..> = > 8 A Z Z Z Z Z Z Z Z Z Z Z Z Z Z A 8 = > > = = X @ D.y ",
"a.s Y ! 3 5 5 3 3 3 3 3 3 3 3 3 3 3 3 3 5 3 3 3 3 5 5 3 5 5 X X > > > > > > > : : : : : : : : : : : : : : > > > > > = = X @ D.y ",
"a.s Y R 3 3 3 3 5 5 5 5 3 5 5 3 4 4 5 3 5 5 5 5 5 5 5 5 5 5 o X > > > > > > > > > > > > > > > > > > > > > > = = > > = = X @ D.y ",
"p.s $ O @ @ @ @ @ @ @ @ @ @ @ X X @ @ @ @ @ @ @ @ @ @ @ @ @ X X X X X X X X X X X X X X X X X X X X X X X X X X X X X X X @ D.y ",
"i.s $ O X X X X X X X X X X X @ @ X X X X X X X X X X X X X X o X X X X X X X X X X X X X + + X X o o o X X X o X X X o X @ D.y ",
"t.s Y R &.&.&.&.&.&.&.&.=.b l X X A Z 1.1.1.1.1.1.1.1.1.,.,.1.1.1.1.1.1.1.1.1.1.1.1.1.A A X X m n &.&.&.#.=.&.&.#.=.&.&.X @ D.y ",
"q.p Y ~ %.=.%.=.*.=.%.=.=.n b   X K L =.7.7.7.>.1.1.1.1.>.>.>.>.6.6.=.=.1.1.1.1.>.>.7.K K X . b N %.%.-.=.%.=.=.%.%.%.%.X @ D.a ",
"| s l.N.P E P E ! ! I %.:.W Y X X 1.7.1.>.>.O.( ~ ~ ~ ~ ~ ~ ~ ~ ~ ~ ~ ~ ~ ~ ~ ~ ) =.7.~ ~ X @ &.*.=.*.*._ ! E E P P P P X @ D.a ",
"q.p v.x.E E E P E ! W %.*.R Y # X 1.7.1.1.1.O.~ ~ ~ ~ ( ~ ~ ~ ~ ~ ~ ~ ~ ~ ~ ~ ~ ~ =.8.! ~ @ X &.*.*.%.%.( E E E E E P P X @ D.a ",
"q.p v.x.W W W L D P E W P 3 5 . X 1.>.) ~ ~ ! P P P ~ / ~ ~ ~ ~ ~ ~ ~ ~ / Q P Q ~ ~ ~ q r X X &.*.! I E ! I E E W W J J X @ D.a ",
"q.p n.x.! ! P P L P E E Q 3 5 X X ,.9.~ ~ ~ ~ ! ! ! ~ ~ ~ ~ ~ ~ ! ! ~ ~ ~ ! ! ~ ~ ) ~ 9 9 X o &.=.E E W P P P E E E P P X @ D.a ",
"q.p n.x.! I L P E P E E Q 3 5 X X ,.9.~ ~ ~ ~ ~ ~ ~ ~ ~ ~ ~ ~ ~ P Y ~ ~ ~ ~ ~ ~ ~ ) ~ 9 9 X o &.=.E E W P S P E E E P ! X @ D.a ",
"t.p n.x.W P P P Q Q E E Q 3 5 X X ,.9.~ ~ ~ ~ ~ ~ ~ ! ! ~ ~ ~ ~ ! ! ~ ~ ~ ~ ~ ~ ~ ) ~ 9 9 X o &.=.E E W P L P E E E E E X @ D.a ",
"t.p n.x.W ! W W E E E E Q 3 5 X X ,.9.~ ~ ~ ~ ~ ~ ~ Y P ~ ~ ~ ~ ~ ~ ~ ~ ~ ~ ~ ~ ~ ) ~ 9 9 X o &.=.E E W E E ! E E E E E X @ D.i ",
"t.u n.x.W W W W E m 3 3 , 3 5 o X 1.1.9 9 q V ~ ~ ~ ~ ~ ~ ~ ~ ~ ~ ~ ~ ~ ~ ~ ~ A 9 9 9 8 9 @ o %.O.3 3 3 b E E E W W R R X @ D.i ",
"a.y n.x.Y Y Y Y Q m 3 3 5 5 5 o @ 2.1.h r r A ~ ~ ~ ~ ~ ~ ~ ~ ~ ~ ~ ~ ~ ~ ~ ~ A r r r r 9 @ o &.+.3 3 3 M Y Y Q E Q Y Y X @ D.i ",
"a.y Y P 3 3 3 3 2 5 5 5 5 5 5 X X r r 9 9 9 r 8 9 9 9 9 q 8 8 8 8 9 8 8 q 8 8 r 9 9 9 9 f X X , 5 5 5 3 5 3 3 3 3 3 3 3 X @ S.a ",
"d.y Y ! 5 4 4 5 5 5 5 5 4 5 5 X X f 9 f w 9 9 f r r r r r r r r r r r r r r 9 9 9 9 9 9 f @ @ , 5 5 5 2 5 5 3 3 2 4 < < X @ S.a ",
"u.i X X X X X X X X X X X X X X X X X X X X X X X X X X X X X X X X X X X X X X X X X X X X X X X X X X X X X X X X X X X @ S.a ",
"u.d @ X @ @ @ @ @ @ @ @ @ @ @ @ @ @ @ @ @ @ @ @ @ @ @ @ @ @ @ @ @ @ @ @ @ @ @ @ @ @ @ @ @ @ @ @ @ @ @ @ @ @ @ @ @ @ @ @ @ + F.a ",
"h.F.G.S.Z.Z.Z.Z.Z.Z.Z.Z.Z.Z.Z.Z.Z.Z.Z.Z.Z.Z.Z.Z.Z.Z.Z.Z.Z.Z.Z.Z.Z.Z.Z.Z.Z.Z.Z.Z.Z.Z.Z.Z.Z.Z.Z.Z.A.A.A.A.Z.Z.Z.Z.Z.Z.Z.Z.Z.Z.F.a ",
"g d d d d d d d d d d d d d d d a a a a a a a a a a a a a a a a a a a a a a a a a a a a a a a a d d d d a a a a a a a a i i a y "
};
